<svg width="24" height="34" viewBox="0 0 24 34" fill="none" xmlns="http://www.w3.org/2000/svg">
<path d="M12.302 33.25H12.2763H12.0031H11.977L11.9515 33.2446L12.0031 33L11.9515 33.2446L11.9514 33.2446L11.9511 33.2445L11.9501 33.2443L11.9468 33.2436L11.9343 33.2409L11.8875 33.2305C11.8469 33.2214 11.7882 33.2078 11.7146 33.1899C11.5675 33.1541 11.3604 33.1009 11.1196 33.0311C10.6401 32.8921 10.0179 32.6845 9.46731 32.4132C8.90398 32.1356 8.58106 31.8321 8.39739 31.5827C8.30591 31.4586 8.25043 31.3497 8.21714 31.2674C8.21321 31.2576 8.2096 31.2483 8.20627 31.2393C7.67484 30.926 7.16618 30.576 6.68405 30.1919C6.6838 30.1917 6.68356 30.1915 6.68331 30.1913L6.83909 29.9958C5.9564 29.3015 5.91377 28.6732 5.91377 28.6732L12.302 33.25ZM12.302 33.25L12.3272 33.2448L12.2763 33L12.3273 33.2448L12.3273 33.2447L12.3276 33.2447L12.3286 33.2445L12.332 33.2438L12.3446 33.2411L12.3921 33.2307C12.4332 33.2215 12.4926 33.2079 12.5671 33.19C12.7161 33.1543 12.9255 33.1011 13.1688 33.0313C13.653 32.8923 14.2803 32.6847 14.8313 32.4132C15.3947 32.1356 15.7176 31.8321 15.9012 31.5827C15.9927 31.4586 16.0482 31.3497 16.0815 31.2674C16.0854 31.2576 16.089 31.2483 16.0924 31.2393C16.6239 30.9259 17.1326 30.5759 17.6147 30.1918C18.0833 29.8229 18.3378 29.4627 18.4751 29.1837C18.5434 29.0447 18.582 28.9274 18.6036 28.8413C18.6062 28.8399 18.6089 28.8385 18.6116 28.8371C18.6893 28.7959 18.7949 28.7341 18.9078 28.6506C19.1297 28.4866 19.4022 28.2222 19.5256 27.8453C19.6251 27.5411 19.7211 27.269 19.7921 27.0729C19.8276 26.9749 19.8568 26.896 19.8772 26.8418L19.8939 26.7973C19.9039 26.7852 19.9162 26.7703 19.9303 26.753C19.9694 26.7048 20.0229 26.6371 20.0807 26.5589C20.1922 26.4081 20.3349 26.1981 20.411 26.0088C20.4942 25.8019 20.5074 25.5238 20.5066 25.3277C20.5063 25.2479 20.5034 25.1746 20.5001 25.1145C20.5545 25.076 20.6177 25.0242 20.6835 24.956C20.8584 24.7744 21.0438 24.4844 21.1344 24.039L21.1344 24.039L21.1352 24.0349C21.239 23.4772 21.3046 22.9132 21.3316 22.3468L21.3381 22.3319C21.3542 22.295 21.3772 22.2417 21.4054 22.1762C21.4616 22.0453 21.5381 21.8651 21.6191 21.6685C21.7785 21.2811 21.9633 20.8109 22.0381 20.5331C22.1158 20.2446 22.1709 19.6192 22.207 19.0957C22.2255 18.8276 22.2395 18.576 22.249 18.3916C22.2537 18.2993 22.2573 18.2237 22.2597 18.1712L22.2606 18.15C22.2709 18.1319 22.2836 18.1093 22.2986 18.0823C22.3429 18.0026 22.4074 17.8846 22.4889 17.7295C22.652 17.4193 22.8834 16.961 23.1586 16.3652C23.4538 15.726 23.5469 14.9448 23.5424 14.2071C23.5379 13.4657 23.4343 12.7454 23.3188 12.2129C23.1974 11.6532 22.9793 11.3475 22.7444 11.1919C22.6855 11.1529 22.6281 11.1251 22.5745 11.1054C22.5818 11.0133 22.5909 10.8971 22.601 10.7642C22.627 10.4259 22.6601 9.97942 22.6887 9.54739C22.7199 9.07646 22.6248 8.52472 22.4838 7.96659C22.348 7.42863 22.1638 6.86377 21.9908 6.33328L21.9684 6.26458C21.8643 5.94528 21.6506 5.61293 21.377 5.28217C21.1012 4.94879 20.7529 4.60325 20.3634 4.25777C19.5845 3.5668 18.625 2.86211 17.7129 2.23882C16.7605 1.58804 15.4314 1.21918 14.364 1.01162C13.826 0.907017 13.3461 0.84185 13.0004 0.802801C12.8275 0.783264 12.6879 0.770234 12.5912 0.762063C12.5428 0.757977 12.5051 0.755104 12.4793 0.75324L12.4496 0.751174L12.4418 0.75066L12.4396 0.750524L12.439 0.750485L12.4388 0.750473C12.4387 0.750469 12.4387 0.750466 12.4234 1L12.4387 0.750466L12.4311 0.75H12.4234H11.8746H11.8668L11.859 0.750485L11.8746 1C11.859 0.750485 11.859 0.750488 11.8589 0.750492L11.8587 0.750505L11.8581 0.750544L11.856 0.750682L11.8481 0.751206L11.8184 0.753307C11.7926 0.755201 11.7549 0.758117 11.7065 0.762257C11.6098 0.770534 11.4702 0.783713 11.2972 0.803413C10.9515 0.842788 10.4714 0.908345 9.93336 1.0132C8.86574 1.22127 7.53653 1.5901 6.58428 2.2386C5.67177 2.86003 4.71361 3.56463 3.93552 4.25588C3.54648 4.6015 3.19855 4.94721 2.92284 5.28061C2.64927 5.61142 2.43552 5.94348 2.33053 6.26202L2.32529 6.27791C2.14545 6.82354 1.9524 7.40923 1.81137 7.96671C1.6698 8.52634 1.57458 9.07972 1.60576 9.55095C1.63435 9.98323 1.6673 10.43 1.69308 10.7685C1.70319 10.9014 1.71221 11.0176 1.71944 11.1099C1.66605 11.1294 1.60881 11.1571 1.55012 11.1959C1.31538 11.3514 1.09737 11.6571 0.975069 12.2174C0.858611 12.7508 0.754628 13.4718 0.75015 14.2135C0.745695 14.9514 0.839457 15.7323 1.13612 16.3705C1.41236 16.9649 1.64387 17.4225 1.80673 17.7322C1.88816 17.887 1.95243 18.0049 1.99656 18.0844C2.01154 18.1115 2.0242 18.134 2.03443 18.1521L2.03538 18.1735C2.03777 18.2261 2.04134 18.3016 2.04606 18.3939C2.05551 18.5782 2.06957 18.8298 2.08805 19.0979C2.12413 19.6213 2.1792 20.2467 2.2569 20.5354C2.33175 20.8135 2.51651 21.2838 2.67598 21.6711C2.75695 21.8677 2.83344 22.0478 2.88967 22.1787C2.9178 22.2442 2.94089 22.2974 2.95697 22.3344L2.96345 22.3492C2.99045 22.9156 3.05606 23.4796 3.15984 24.0373L3.1598 24.0373L3.16064 24.0414C3.25126 24.4868 3.43659 24.7768 3.61155 24.9584C3.67742 25.0267 3.74072 25.0786 3.79516 25.1171C3.7919 25.1772 3.78916 25.2506 3.78888 25.3305C3.78821 25.5265 3.80144 25.8043 3.88378 26.0106C3.95937 26.2 4.10236 26.4104 4.21396 26.5612C4.27186 26.6394 4.32548 26.7072 4.36467 26.7554C4.37877 26.7727 4.39105 26.7876 4.40106 26.7996L4.41772 26.844C4.438 26.8982 4.4672 26.9771 4.50267 27.0752C4.57367 27.2713 4.66963 27.5436 4.76954 27.8479C4.89324 28.2247 5.16564 28.489 5.3874 28.653C5.50029 28.7365 5.60577 28.7983 5.68344 28.8394C5.68631 28.8409 5.68915 28.8424 5.69194 28.8439L12.302 33.25Z" fill="#191820" stroke="white" stroke-width="0.5"/>
<path d="M12.2504 32.0935L14.1064 31.8327L14.561 31.3861L15.2413 30.2678L14.9975 29.7038L15.5926 30.3654C16.0071 30.1216 16.4038 29.8492 16.7797 29.5502C17.445 29.028 17.5075 28.4748 17.5075 28.4748C17.5075 28.4748 16.8944 28.7892 16.4128 28.9357C15.9312 29.0821 15.2413 28.9357 15.2413 28.9357C15.2413 28.9357 16.5503 28.5069 16.9472 28.1508C17.3441 27.7947 17.2673 27.0533 17.2673 27.0533C17.2673 27.0533 17.8678 26.7919 18.1548 26.3066C18.4418 25.8213 18.1908 25.2907 18.1908 25.2907L16.7173 23.4191L17.7345 19.7462L16.617 18.2438L15.8033 19.8998L16.3378 21.3885L15.5614 22.1108V23.4322L14.1413 20.8008C14.1413 20.8008 15.5602 21.0348 15.5614 21.0634C15.5626 21.092 14.6643 19.0143 14.6643 19.0143L13.862 20.1326C13.862 20.1326 13.5492 20.0344 13.0952 19.9135C12.8204 19.8401 12.5387 19.7946 12.2546 19.7777L11.9291 19.7825C11.6838 19.8014 11.4412 19.8453 11.205 19.9135C10.751 20.0326 10.4376 20.1326 10.4376 20.1326L9.63595 19.0143C9.63595 19.0143 8.73524 21.0914 8.73885 21.0634C8.74245 21.0354 10.159 20.8008 10.159 20.8008L8.73885 23.4322V22.1126L7.96244 21.3903L8.49686 19.9016L7.68142 18.2438L6.56395 19.7462L7.58115 23.4191L6.107 25.2907C6.107 25.2907 5.856 25.8207 6.14363 26.3066C6.43125 26.7925 7.03052 27.0533 7.03052 27.0533C7.03052 27.0533 6.95366 27.7947 7.35117 28.1508C7.74868 28.5069 9.0571 28.9357 9.0571 28.9357C9.0571 28.9357 8.36776 29.0821 7.88558 28.9357C7.40341 28.7892 6.79033 28.4748 6.79033 28.4748C6.79033 28.4748 6.85338 29.028 7.5187 29.5502C7.89462 29.8492 8.29131 30.1216 8.70582 30.3654L9.30269 29.7038L9.0589 30.2678L9.73923 31.3861L10.1938 31.8327L12.1045 32.0935H12.2504Z" fill="white"/>
<path d="M13.6584 11.937C13.6584 11.937 13.8656 11.4011 14.6618 11.2057C15.458 11.0104 16.4854 11.4029 16.4854 11.4029C16.4854 11.4029 16.9688 11.6166 16.7064 11.9388C16.444 12.2609 15.7949 12.1174 15.7949 12.1174C15.7949 12.1174 16.2872 12.3985 16.7844 12.3128C17.2816 12.227 16.4518 12.7528 15.7888 12.6867C15.1259 12.6206 14.3633 12.3086 14.3633 12.3086C14.3633 12.3086 14.3765 12.6117 14.98 12.8183C15.5835 13.0249 16.0729 13.3197 16.7064 12.972C17.3399 12.6242 18.0796 12.3253 18.6086 12.3908C19.1376 12.4563 19.797 13.1327 19.797 13.1327H18.2093C18.2093 13.1327 17.8797 14.2385 18.2436 14.5815C18.6074 14.9245 19.3718 15.648 19.3718 15.648C19.3718 15.648 19.0794 15.5033 18.4345 16.1209C17.7896 16.7384 18.1205 18.2128 18.1205 18.2128L18.6086 19.3311C18.6086 19.3311 17.5128 18.2914 16.5514 17.69C15.5901 17.0885 15.0629 16.9706 14.729 16.2912C14.3952 15.6117 14.9932 14.9871 14.9932 14.9871L13.351 12.3521L13.9514 12.838L13.6584 11.937Z" fill="white"/>
<path d="M19.4763 21.175L18.6507 23.1812L19.0848 24.2727L18.1517 25.8091L20.4485 23.9673L19.4763 21.175Z" fill="white"/>
<path d="M12.2117 9.87546C12.2117 9.87546 13.6023 10.0327 14.222 9.87129C14.8417 9.70991 14.9354 9.40265 14.9354 9.40265C14.9354 9.40265 16.0282 9.66049 16.8875 9.87129C17.7468 10.0821 17.9413 9.87129 17.9413 9.87129C17.9413 9.87129 18.4991 9.35679 18.1905 8.89589C17.8819 8.43499 16.7248 8.07353 16.7248 8.07353C16.7248 8.07353 17.8446 8.12712 18.507 8.52669C19.1693 8.92626 19.9247 8.40402 20.3972 7.94312C20.8698 7.48222 20.5449 7.08205 20.5449 7.08205C20.5449 7.08205 19.801 7.26665 19.0804 6.89031C18.3598 6.51397 18.065 6.16025 17.6837 5.6398C17.3024 5.11935 17.6777 4.62748 17.6837 3.85335C17.6897 3.07923 16.7794 2.77791 16.7794 2.77791C16.7794 2.77791 16.8569 3.14652 16.3165 4.13204C15.776 5.11756 14.6634 5.14138 14.6634 5.14138C14.6634 5.14138 15.9556 4.47742 15.5761 3.02742C15.4092 2.38847 14.0539 1.70486 14.0539 1.70486C14.0539 1.70486 14.47 2.31642 14.2845 3.02325C14.0989 3.73009 13.1274 4.03557 13.1274 4.03557C13.1274 4.03557 13.9122 3.21857 13.675 2.29081C13.4378 1.36305 12.5798 1.4095 12.5798 1.4095H11.7199C11.7199 1.4095 10.8636 1.36067 10.6234 2.29081C10.3832 3.22095 11.1711 4.03974 11.1711 4.03974C11.1711 4.03974 10.2001 3.73247 10.014 3.02742C9.82781 2.32237 10.2445 1.70903 10.2445 1.70903C10.2445 1.70903 8.88928 2.39264 8.72235 3.03159C8.34286 4.48159 9.63506 5.14555 9.63506 5.14555C9.63506 5.14555 8.5218 5.11875 7.98138 4.13383C7.44096 3.1489 7.51842 2.7797 7.51842 2.7797C7.51842 2.7797 6.60871 3.07744 6.61412 3.85514C6.61952 4.63284 6.99601 5.12054 6.61412 5.64159C6.23222 6.16263 5.93979 6.51397 5.21923 6.89031C4.49867 7.26665 3.7547 7.08205 3.7547 7.08205C3.7547 7.08205 3.42924 7.48162 3.90241 7.94312C4.37558 8.40462 5.12976 8.92626 5.79268 8.52669C6.45559 8.12712 7.57486 8.07353 7.57486 8.07353C7.57486 8.07353 6.41716 8.43439 6.10852 8.89589C5.79988 9.35739 6.36012 9.87129 6.36012 9.87129C6.36012 9.87129 6.55407 10.0821 7.41394 9.87129C8.27381 9.66049 9.36245 9.40265 9.36245 9.40265C9.36245 9.40265 9.45552 9.70991 10.0752 9.87129C10.6949 10.0327 12.127 9.87129 12.127 9.87129L12.2117 9.87546Z" fill="white"/>
<path d="M10.6352 11.937C10.6352 11.937 10.4281 11.4011 9.63184 11.2057C8.83562 11.0104 7.80822 11.4029 7.80822 11.4029C7.80822 11.4029 7.32484 11.6166 7.58725 11.9388C7.84965 12.2609 8.49875 12.1174 8.49875 12.1174C8.49875 12.1174 8.00577 12.3985 7.50919 12.3128C7.0126 12.227 7.84124 12.7528 8.50476 12.6867C9.16828 12.6206 9.93027 12.3086 9.93027 12.3086C9.93027 12.3086 9.91706 12.6117 9.31359 12.8183C8.71012 13.0249 8.22074 13.3197 7.58725 12.972C6.95375 12.6242 6.21338 12.3253 5.68497 12.3908C5.15656 12.4563 4.49664 13.1309 4.49664 13.1309H6.08428C6.08428 13.1309 6.41393 14.2368 6.05005 14.5798C5.68617 14.9228 4.92177 15.6463 4.92177 15.6463C4.92177 15.6463 5.2142 15.5016 5.8585 16.1191C6.5028 16.7366 6.17315 18.211 6.17315 18.211L5.68497 19.3293C5.68497 19.3293 6.77842 18.2914 7.74217 17.69C8.70592 17.0885 9.23193 16.9688 9.56458 16.2894C9.89724 15.6099 9.30038 14.9853 9.30038 14.9853L10.9427 12.3503L10.3422 12.8362L10.6352 11.937Z" fill="white"/>
<path d="M12.4027 17.7168L13.355 16.7961L14.5031 17.6917L15.4861 17.4095L16.3525 17.9204L16.1244 19.0608L14.4935 18.1687L12.1721 18.0741H12.1271L9.80625 18.1687L8.17538 19.0608L7.9472 17.9204L8.81368 17.4095L9.79664 17.6917L10.9447 16.7961L11.9385 17.7168H12.4027Z" fill="white"/>
<path d="M12.5571 18.5621L13.471 18.6044L14.0372 19.1034L13.1041 19.266L12.3247 19.3285H11.86L11.197 19.266L10.2639 19.1034L10.8302 18.6044L11.9758 18.5514L12.5571 18.5621Z" fill="white"/>
<path d="M4.82196 21.175L5.64819 23.1812L5.21406 24.2727L6.14658 25.8091L3.8504 23.9673L4.82196 21.175Z" fill="white"/>
<path d="M12.1296 10.3687C11.9933 10.3265 11.9062 10.3437 11.6006 10.6284C11.2775 10.9261 11.6972 11.2929 11.6972 11.2929L11.3015 13.7344L10.7905 13.3938L10.2639 14.3668L10.9689 14.2352L10.946 14.9623L11.1862 15.3571L12.1164 15.8537L12.3175 15.849L13.1149 15.3571L13.3551 14.9623L13.3323 14.2352L14.0372 14.3686L13.51 13.398L12.999 13.7386L12.6039 11.2971C12.6039 11.2971 13.0453 10.8463 12.697 10.5748C12.3487 10.3032 12.1716 10.3729 12.1716 10.3729L12.1296 10.3687Z" fill="white"/>
</svg>
