<svg width="197" height="58" viewBox="0 0 197 58" fill="none" xmlns="http://www.w3.org/2000/svg">
<path d="M75.1853 35.3292H67.302L66.0383 39.0374H60.6523L68.295 18.0439H74.2526L81.8952 39.0374H76.4491L75.1853 35.3292ZM73.8614 31.3817L71.2437 23.696L68.656 31.3817H73.8614Z" fill="white"/>
<path d="M90.6001 22.1111C91.7836 22.1111 92.8166 22.3503 93.6992 22.8288C94.6019 23.3073 95.294 23.9353 95.7754 24.7128V22.3503H100.921V39.0075C100.921 40.5426 100.61 41.9282 99.9878 43.1643C99.3861 44.4203 98.4533 45.4172 97.1896 46.1548C95.9459 46.8925 94.3913 47.2613 92.5258 47.2613C90.0384 47.2613 88.0224 46.6732 86.4779 45.4969C84.9333 44.3406 84.0507 42.7656 83.83 40.7719H88.9151C89.0756 41.4099 89.4567 41.9083 90.0585 42.2672C90.6602 42.646 91.4024 42.8354 92.2851 42.8354C93.3482 42.8354 94.1907 42.5263 94.8125 41.9083C95.4544 41.3102 95.7754 40.3433 95.7754 39.0075V36.645C95.2739 37.4225 94.5818 38.0605 93.6992 38.5589C92.8166 39.0374 91.7836 39.2766 90.6001 39.2766C89.216 39.2766 87.9623 38.9277 86.8389 38.23C85.7156 37.5122 84.823 36.5054 84.161 35.2095C83.5191 33.8937 83.1982 32.3785 83.1982 30.6639C83.1982 28.9494 83.5191 27.4441 84.161 26.1483C84.823 24.8524 85.7156 23.8555 86.8389 23.1577C87.9623 22.4599 89.216 22.1111 90.6001 22.1111ZM95.7754 30.6938C95.7754 29.4179 95.4143 28.4111 94.6922 27.6734C93.9901 26.9358 93.1275 26.5669 92.1045 26.5669C91.0815 26.5669 90.2089 26.9358 89.4868 27.6734C88.7847 28.3911 88.4337 29.388 88.4337 30.6639C88.4337 31.9399 88.7847 32.9567 89.4868 33.7143C90.2089 34.4519 91.0815 34.8208 92.1045 34.8208C93.1275 34.8208 93.9901 34.4519 94.6922 33.7143C95.4143 32.9766 95.7754 31.9698 95.7754 30.6938Z" fill="white"/>
<path d="M112.286 39.2766C110.641 39.2766 109.156 38.9277 107.832 38.23C106.529 37.5322 105.495 36.5353 104.733 35.2394C103.991 33.9435 103.62 32.4284 103.62 30.6938C103.62 28.9793 104.001 27.4741 104.763 26.1782C105.526 24.8623 106.569 23.8555 107.893 23.1577C109.216 22.4599 110.701 22.1111 112.346 22.1111C113.991 22.1111 115.475 22.4599 116.799 23.1577C118.123 23.8555 119.166 24.8623 119.928 26.1782C120.69 27.4741 121.072 28.9793 121.072 30.6938C121.072 32.4084 120.68 33.9236 119.898 35.2394C119.136 36.5353 118.083 37.5322 116.739 38.23C115.415 38.9277 113.93 39.2766 112.286 39.2766ZM112.286 34.8507C113.268 34.8507 114.101 34.4918 114.783 33.7741C115.485 33.0564 115.836 32.0296 115.836 30.6938C115.836 29.3581 115.495 28.3313 114.813 27.6136C114.151 26.8959 113.329 26.537 112.346 26.537C111.343 26.537 110.51 26.8959 109.848 27.6136C109.186 28.3114 108.855 29.3381 108.855 30.6938C108.855 32.0296 109.176 33.0564 109.818 33.7741C110.48 34.4918 111.303 34.8507 112.286 34.8507Z" fill="white"/>
<path d="M128.946 25.1315C129.548 24.2144 130.3 23.4967 131.203 22.9783C132.106 22.44 133.109 22.1709 134.212 22.1709V27.5837H132.798C131.514 27.5837 130.551 27.8628 129.909 28.4211C129.267 28.9593 128.946 29.9163 128.946 31.292V39.0374H123.801V22.3503H128.946V25.1315Z" fill="white"/>
<path d="M149.82 35.3292H141.937L140.673 39.0374H135.287L142.93 18.0439H148.887L156.53 39.0374H151.084L149.82 35.3292ZM148.496 31.3817L145.878 23.696L143.291 31.3817H148.496Z" fill="white"/>
<path d="M164.001 24.7128C164.503 23.9353 165.195 23.3073 166.077 22.8288C166.96 22.3503 167.993 22.1111 169.177 22.1111C170.561 22.1111 171.814 22.4599 172.938 23.1577C174.061 23.8555 174.944 24.8524 175.586 26.1483C176.247 27.4441 176.578 28.9494 176.578 30.6639C176.578 32.3785 176.247 33.8937 175.586 35.2095C174.944 36.5054 174.061 37.5122 172.938 38.23C171.814 38.9277 170.561 39.2766 169.177 39.2766C168.013 39.2766 166.98 39.0374 166.077 38.5589C165.195 38.0804 164.503 37.4624 164.001 36.7048V46.9922H158.856V22.3503H164.001V24.7128ZM171.343 30.6639C171.343 29.388 170.982 28.3911 170.26 27.6734C169.558 26.9358 168.685 26.5669 167.642 26.5669C166.619 26.5669 165.746 26.9358 165.024 27.6734C164.322 28.4111 163.971 29.4179 163.971 30.6938C163.971 31.9698 164.322 32.9766 165.024 33.7143C165.746 34.4519 166.619 34.8208 167.642 34.8208C168.665 34.8208 169.538 34.4519 170.26 33.7143C170.982 32.9567 171.343 31.9399 171.343 30.6639Z" fill="white"/>
<path d="M184.423 24.7128C184.924 23.9353 185.617 23.3073 186.499 22.8288C187.382 22.3503 188.415 22.1111 189.598 22.1111C190.982 22.1111 192.236 22.4599 193.359 23.1577C194.483 23.8555 195.365 24.8524 196.007 26.1483C196.669 27.4441 197 28.9494 197 30.6639C197 32.3785 196.669 33.8937 196.007 35.2095C195.365 36.5054 194.483 37.5122 193.359 38.23C192.236 38.9277 190.982 39.2766 189.598 39.2766C188.435 39.2766 187.402 39.0374 186.499 38.5589C185.617 38.0804 184.924 37.4624 184.423 36.7048V46.9922H179.278V22.3503H184.423V24.7128ZM191.765 30.6639C191.765 29.388 191.404 28.3911 190.681 27.6734C189.979 26.9358 189.107 26.5669 188.064 26.5669C187.041 26.5669 186.168 26.9358 185.446 27.6734C184.744 28.4111 184.393 29.4179 184.393 30.6938C184.393 31.9698 184.744 32.9766 185.446 33.7143C186.168 34.4519 187.041 34.8208 188.064 34.8208C189.087 34.8208 189.959 34.4519 190.681 33.7143C191.404 32.9567 191.765 31.9399 191.765 30.6639Z" fill="white"/>
<path d="M10.9736 51.938C11.821 52.619 12.7161 53.2384 13.6521 53.7914C13.6618 53.8218 13.6743 53.8571 13.6902 53.8969C13.7423 54.027 13.831 54.2035 13.9802 54.4078C14.2792 54.8173 14.8152 55.3302 15.7694 55.8045C16.7107 56.2725 17.7785 56.6322 18.6059 56.8742C19.0207 56.9955 19.3773 57.0879 19.6304 57.15C19.7571 57.1811 19.8579 57.2046 19.9274 57.2204C19.9621 57.2283 19.989 57.2343 20.0073 57.2383L20.0283 57.2429L20.0339 57.2441L20.0354 57.2444L20.0358 57.2445L20.0359 57.2445L20.088 57L20.036 57.2445L20.0617 57.25H20.088H20.562H20.5879L20.6133 57.2447L20.562 57L20.6133 57.2447L20.6135 57.2446L20.6139 57.2445L20.6154 57.2442L20.621 57.243L20.6423 57.2385C20.6609 57.2344 20.6881 57.2285 20.7233 57.2205C20.7937 57.2047 20.8958 57.1812 21.024 57.1502C21.2803 57.088 21.6411 56.9957 22.06 56.8744C22.8957 56.6324 23.9722 56.2727 24.9139 55.8045C25.8681 55.3302 26.4041 54.8173 26.7031 54.4078C26.8523 54.2035 26.941 54.027 26.9931 53.8969C27.009 53.8571 27.0215 53.8218 27.0312 53.7914C27.9671 53.2384 28.8623 52.619 29.7098 51.938C30.502 51.309 30.9255 50.7003 31.151 50.238C31.2635 50.0073 31.3259 49.8146 31.3604 49.6761C31.3678 49.6462 31.3739 49.6189 31.379 49.5942C31.4052 49.5812 31.4348 49.566 31.4672 49.5487C31.5958 49.48 31.7708 49.3767 31.9578 49.2372C32.3279 48.9612 32.7665 48.5274 32.9634 47.9203C33.1369 47.3856 33.304 46.9075 33.4277 46.563C33.4896 46.3908 33.5405 46.2521 33.576 46.1567C33.5934 46.1099 33.607 46.0735 33.6164 46.0486L33.6184 46.0462C33.6374 46.0232 33.6647 45.9901 33.698 45.9487C33.7645 45.866 33.8555 45.7499 33.9537 45.6158C34.1462 45.3533 34.3812 45.002 34.5037 44.6948C34.6332 44.3701 34.6574 43.9165 34.656 43.5743C34.6553 43.3972 34.6474 43.2385 34.6397 43.124C34.6393 43.1171 34.6388 43.1103 34.6384 43.1037C34.6411 43.102 34.6439 43.1003 34.6466 43.0985C34.7456 43.0355 34.8762 42.9374 35.015 42.7921C35.2944 42.4996 35.5989 42.0242 35.7489 41.2805L35.7489 41.2805L35.7497 41.2764C35.9302 40.2975 36.0436 39.3074 36.089 38.3131L36.114 38.2553C36.1418 38.1909 36.1817 38.098 36.2304 37.9837C36.3277 37.7551 36.46 37.4408 36.6 37.0977C36.8776 36.4176 37.1932 35.606 37.3193 35.1337C37.4483 34.6507 37.5432 33.5774 37.6062 32.6545C37.6382 32.1866 37.6625 31.7476 37.6789 31.4255C37.6871 31.2645 37.6932 31.1326 37.6974 31.0409L37.701 30.9586C37.701 30.9586 37.701 30.9585 37.701 30.9585C37.7209 30.9233 37.7503 30.871 37.7883 30.802C37.8645 30.6639 37.9756 30.4586 38.1164 30.1885C38.398 29.6484 38.798 28.8492 39.2739 27.8098C39.7695 26.7271 39.9303 25.3919 39.9225 24.1137C39.9147 22.8316 39.7371 21.5844 39.5389 20.6628C39.3349 19.7144 38.9763 19.23 38.6213 18.9927C38.4797 18.8981 38.345 18.8473 38.2321 18.821L38.2343 18.7924C38.2481 18.6176 38.2675 18.3688 38.29 18.0729C38.3349 17.4812 38.3923 16.7005 38.4418 15.9454C38.4939 15.1517 38.335 14.2095 38.0918 13.2379C37.8577 12.303 37.54 11.3201 37.2393 10.39L37.2011 10.2717C37.031 9.74543 36.677 9.18508 36.2088 8.61414C35.7385 8.04063 35.1417 7.44292 34.4702 6.84208C33.1273 5.6404 31.4701 4.41223 29.8904 3.32332C28.2704 2.20661 25.9953 1.56665 24.1489 1.20447C23.2215 1.02255 22.3938 0.909172 21.7977 0.841244C21.4996 0.807268 21.2592 0.784629 21.0929 0.77046C21.0097 0.763375 20.9451 0.758406 20.901 0.755194L20.8506 0.75165L20.8374 0.750783L20.8339 0.750561L20.833 0.750501L20.8327 0.750483C20.8326 0.750478 20.8326 0.750474 20.8172 1L20.8326 0.750474L20.8249 0.75H20.8172H19.8651H19.8572L19.8494 0.750493L19.8651 1C19.8494 0.750493 19.8493 0.750497 19.8492 0.750503L19.8489 0.75052L19.848 0.750582L19.8445 0.750808L19.8313 0.751691L19.7809 0.755296C19.7368 0.758559 19.6722 0.763604 19.589 0.770783C19.4227 0.785138 19.1822 0.808034 18.884 0.842296C18.2878 0.910795 17.4598 1.02485 16.5322 1.20722C14.6853 1.5703 12.41 2.21024 10.7901 3.3231C9.20999 4.40859 7.55506 5.63656 6.21368 6.83869C5.54299 7.43975 4.94682 8.03778 4.47659 8.61139C4.00845 9.18244 3.65408 9.74252 3.48244 10.2678L3.47439 10.2925C3.16169 11.2495 2.82854 12.2692 2.58552 13.2382C2.34122 14.2124 2.18205 15.1574 2.23414 15.9516C2.28369 16.7073 2.34079 17.4884 2.38549 18.0805C2.40784 18.3766 2.42709 18.6255 2.44076 18.8004L2.44301 18.8289C2.33027 18.855 2.19604 18.9056 2.05491 18.9998C1.70018 19.2367 1.34162 19.7212 1.13612 20.6708C0.936323 21.5941 0.757932 22.8425 0.750257 24.1248C0.742605 25.4032 0.904389 26.7378 1.40237 27.8187C1.88022 28.8558 2.28047 29.6538 2.56166 30.1932C2.70226 30.4629 2.8131 30.668 2.889 30.806C2.92695 30.875 2.95617 30.9273 2.976 30.9624L2.97601 30.9624L2.97966 31.0451C2.98379 31.1367 2.98997 31.2685 2.99814 31.4296C3.01449 31.7515 3.03882 32.1905 3.07079 32.6582C3.13385 33.581 3.22871 34.6543 3.35769 35.1378C3.48387 35.6107 3.79946 36.4223 4.07704 37.1023C4.21703 37.4453 4.34934 37.7595 4.44664 37.988C4.4953 38.1023 4.53523 38.1951 4.56302 38.2595L4.58802 38.3173C4.63342 39.3116 4.74679 40.3017 4.92737 41.2806L4.92734 41.2806L4.92816 41.2846C5.07818 42.0284 5.38263 42.5038 5.66199 42.7962C5.80078 42.9415 5.93147 43.0397 6.03038 43.1026C6.03326 43.1045 6.03611 43.1063 6.03894 43.1081C6.03848 43.1148 6.03801 43.1217 6.03755 43.1287C6.03007 43.2432 6.02241 43.402 6.0218 43.5791C6.02063 43.9213 6.04491 44.3745 6.17306 44.6984C6.2946 45.0055 6.52994 45.3571 6.72257 45.6197C6.82095 45.7538 6.91219 45.8701 6.97886 45.9529C7.01224 45.9943 7.03958 46.0275 7.0587 46.0505L7.06062 46.0527C7.06996 46.0777 7.08355 46.114 7.10083 46.1607C7.13621 46.2562 7.18708 46.3949 7.24887 46.5671C7.37249 46.9116 7.53961 47.3899 7.71365 47.9247C7.91118 48.5316 8.34966 48.9653 8.71959 49.2414C8.90649 49.3808 9.08137 49.4842 9.20994 49.5529C9.24253 49.5703 9.27225 49.5855 9.29855 49.5986C9.30368 49.6232 9.3099 49.6504 9.31743 49.6802C9.35232 49.8182 9.41527 50.0101 9.52837 50.2401C9.75503 50.7009 10.1801 51.3083 10.9736 51.938ZM10.9736 51.938C10.9733 51.9378 10.9731 51.9377 10.9729 51.9375L11.1295 51.7426L10.9741 51.9385C10.974 51.9383 10.9738 51.9382 10.9736 51.938Z" fill="#191820" stroke="white" stroke-width="0.5"/>
<path d="M20.5175 55.4138L23.7373 54.9573L24.5259 54.1758L25.7061 52.2187L25.2832 51.2319L26.3155 52.3896C27.0346 51.963 27.7227 51.4863 28.3749 50.963C29.5291 50.0491 29.6374 49.081 29.6374 49.081C29.6374 49.081 28.5739 49.6312 27.7384 49.8876C26.903 50.1439 25.7061 49.8876 25.7061 49.8876C25.7061 49.8876 27.977 49.1373 28.6655 48.5141C29.3541 47.8909 29.2207 46.5935 29.2207 46.5935C29.2207 46.5935 30.2624 46.136 30.7603 45.2867C31.2583 44.4374 30.8228 43.5089 30.8228 43.5089L28.2666 40.2336L30.0312 33.806L28.0926 31.1768L26.6811 34.0748L27.6082 36.6801L26.2613 37.9441V40.2565L23.7978 35.6515C23.7978 35.6515 26.2592 36.0611 26.2613 36.1111C26.2634 36.1611 24.7051 32.5252 24.7051 32.5252L23.3134 34.4823C23.3134 34.4823 22.7707 34.3103 21.9831 34.0988C21.5063 33.9704 21.0177 33.8908 20.5248 33.8612L19.9602 33.8695C19.5347 33.9025 19.1137 33.9793 18.7039 34.0988C17.9164 34.3072 17.3727 34.4823 17.3727 34.4823L15.982 32.5252C15.982 32.5252 14.4195 36.1601 14.4258 36.1111C14.432 36.0621 16.8893 35.6515 16.8893 35.6515L14.4258 40.2565V37.9472L13.0789 36.6832L14.006 34.078L12.5914 31.1768L10.6528 33.806L12.4174 40.2336L9.86007 43.5089C9.86007 43.5089 9.42464 44.4364 9.92361 45.2867C10.4226 46.1371 11.4622 46.5935 11.4622 46.5935C11.4622 46.5935 11.3288 47.8909 12.0184 48.5141C12.708 49.1373 14.9778 49.8876 14.9778 49.8876C14.9778 49.8876 13.782 50.1439 12.9455 49.8876C12.1091 49.6312 11.0455 49.081 11.0455 49.081C11.0455 49.081 11.1549 50.0491 12.3091 50.963C12.9612 51.4863 13.6494 51.963 14.3685 52.3896L15.4039 51.2319L14.981 52.2187L16.1612 54.1758L16.9497 54.9573L20.2644 55.4138H20.5175Z" fill="white"/>
<path d="M22.9595 20.1397C22.9595 20.1397 23.3189 19.2018 24.7002 18.86C26.0815 18.5182 27.8638 19.205 27.8638 19.205C27.8638 19.205 28.7023 19.5791 28.2471 20.1428C27.7919 20.7066 26.6658 20.4555 26.6658 20.4555C26.6658 20.4555 27.52 20.9473 28.3825 20.7973C29.245 20.6472 27.8054 21.5674 26.6554 21.4517C25.5054 21.336 24.1825 20.79 24.1825 20.79C24.1825 20.79 24.2054 21.3204 25.2523 21.682C26.2992 22.0436 27.1481 22.5595 28.2471 21.9509C29.3461 21.3423 30.6294 20.8192 31.5472 20.9338C32.4649 21.0484 33.6086 22.2322 33.6086 22.2322H30.8544C30.8544 22.2322 30.2826 24.1674 30.9138 24.7677C31.5451 25.3679 32.8711 26.6341 32.8711 26.6341C32.8711 26.6341 32.3638 26.3808 31.2451 27.4615C30.1263 28.5421 30.7003 31.1224 30.7003 31.1224L31.5472 33.0794C31.5472 33.0794 29.6461 31.2599 27.9784 30.2074C26.3106 29.1549 25.396 28.9485 24.8169 27.7595C24.2377 26.5705 25.2752 25.4773 25.2752 25.4773L22.4262 20.8661L23.4679 21.7164L22.9595 20.1397Z" fill="white"/>
<path d="M33.0527 36.3066L31.6204 39.8175L32.3735 41.7276L30.7548 44.4162L34.7392 41.193L33.0527 36.3066Z" fill="white"/>
<path d="M20.4503 16.532C20.4503 16.532 22.8628 16.8071 23.9378 16.5247C25.0128 16.2423 25.1753 15.7046 25.1753 15.7046C25.1753 15.7046 27.0712 16.1558 28.5618 16.5247C30.0525 16.8936 30.39 16.5247 30.39 16.5247C30.39 16.5247 31.3577 15.6244 30.8223 14.8178C30.2869 14.0112 28.2795 13.3786 28.2795 13.3786C28.2795 13.3786 30.2223 13.4724 31.3712 14.1717C32.5202 14.8709 33.8306 13.957 34.6504 13.1504C35.4702 12.3439 34.9067 11.6436 34.9067 11.6436C34.9067 11.6436 33.6161 11.9666 32.366 11.308C31.116 10.6494 30.6046 10.0304 29.9431 9.11962C29.2816 8.20883 29.9327 7.34806 29.9431 5.99334C29.9535 4.63862 28.3743 4.11132 28.3743 4.11132C28.3743 4.11132 28.5087 4.75637 27.5712 6.48104C26.6337 8.2057 24.7035 8.24739 24.7035 8.24739C24.7035 8.24739 26.9452 7.08545 26.2868 4.54796C25.9972 3.42979 23.6462 2.23347 23.6462 2.23347C23.6462 2.23347 24.368 3.3037 24.0462 4.54066C23.7243 5.77763 22.0388 6.31222 22.0388 6.31222C22.0388 6.31222 23.4003 4.88247 22.9889 3.25889C22.5774 1.63531 21.0888 1.71659 21.0888 1.71659H19.5971C19.5971 1.71659 18.1117 1.63114 17.695 3.25889C17.2784 4.88664 18.6451 6.31951 18.6451 6.31951C18.6451 6.31951 16.9607 5.78179 16.6377 4.54796C16.3148 3.31412 17.0377 2.24076 17.0377 2.24076C17.0377 2.24076 14.6867 3.43709 14.3971 4.55525C13.7387 7.09275 15.9804 8.25468 15.9804 8.25468C15.9804 8.25468 14.0492 8.20779 13.1117 6.48416C12.1741 4.76054 12.3085 4.11445 12.3085 4.11445C12.3085 4.11445 10.7304 4.63549 10.7398 5.99647C10.7491 7.35744 11.4023 8.21091 10.7398 9.12274C10.0772 10.0346 9.56995 10.6494 8.31993 11.308C7.06992 11.9666 5.77928 11.6436 5.77928 11.6436C5.77928 11.6436 5.21469 12.3428 6.03553 13.1504C6.85637 13.9581 8.16472 14.8709 9.31474 14.1717C10.4648 13.4724 12.4064 13.3786 12.4064 13.3786C12.4064 13.3786 10.3981 14.0102 9.86266 14.8178C9.32724 15.6254 10.2991 16.5247 10.2991 16.5247C10.2991 16.5247 10.6356 16.8936 12.1273 16.5247C13.619 16.1558 15.5075 15.7046 15.5075 15.7046C15.5075 15.7046 15.669 16.2423 16.744 16.5247C17.819 16.8071 20.3034 16.5247 20.3034 16.5247L20.4503 16.532Z" fill="white"/>
<path d="M17.7151 20.1397C17.7151 20.1397 17.3557 19.2018 15.9744 18.86C14.5932 18.5182 12.8108 19.205 12.8108 19.205C12.8108 19.205 11.9723 19.5791 12.4275 20.1428C12.8827 20.7066 14.0088 20.4555 14.0088 20.4555C14.0088 20.4555 13.1536 20.9473 12.2921 20.7973C11.4306 20.6472 12.8681 21.5674 14.0192 21.4517C15.1702 21.336 16.4921 20.79 16.4921 20.79C16.4921 20.79 16.4692 21.3204 15.4223 21.682C14.3754 22.0436 13.5265 22.5595 12.4275 21.9509C11.3285 21.3423 10.0441 20.8192 9.12746 20.9338C8.21078 21.0484 7.06598 22.2291 7.06598 22.2291H9.82018C9.82018 22.2291 10.3921 24.1643 9.7608 24.7645C9.12955 25.3648 7.80349 26.6309 7.80349 26.6309C7.80349 26.6309 8.31079 26.3777 9.42851 27.4584C10.5462 28.539 9.97435 31.1192 9.97435 31.1192L9.12746 33.0763C9.12746 33.0763 11.0244 31.2599 12.6963 30.2074C14.3682 29.1549 15.2807 28.9454 15.8578 27.7564C16.4348 26.5674 15.3994 25.4742 15.3994 25.4742L18.2484 20.8629L17.2067 21.7133L17.7151 20.1397Z" fill="white"/>
<path d="M20.7811 30.2546L22.4332 28.6436L24.4249 30.2109L26.1302 29.7169L27.6333 30.611L27.2375 32.6066L24.4083 31.0456L20.3811 30.8799H20.303L16.2769 31.0456L13.4477 32.6066L13.0519 30.611L14.555 29.7169L16.2603 30.2109L18.2519 28.6436L19.9759 30.2546H20.7811Z" fill="white"/>
<path d="M21.049 31.7337L22.6344 31.8077L23.6167 32.681L21.9979 32.9655L20.6458 33.0749H19.8396L18.6896 32.9655L17.0708 32.681L18.0531 31.8077L20.0406 31.715L21.049 31.7337Z" fill="white"/>
<path d="M7.63075 36.3066L9.06409 39.8175L8.31096 41.7276L9.92868 44.4162L5.94531 41.193L7.63075 36.3066Z" fill="white"/>
<path d="M20.3073 17.3954C20.0708 17.3214 19.9198 17.3516 19.3896 17.8497C18.8292 18.3708 19.5573 19.0127 19.5573 19.0127L18.8708 23.2853L17.9844 22.6892L17.0708 24.392L18.2937 24.1617L18.2541 25.4341L18.6708 26.125L20.2844 26.9941L20.6333 26.9858L22.0167 26.125L22.4334 25.4341L22.3938 24.1617L23.6167 24.3951L22.7021 22.6965L21.8156 23.2926L21.1302 19.02C21.1302 19.02 21.8959 18.2311 21.2917 17.7559C20.6875 17.2808 20.3802 17.4027 20.3802 17.4027L20.3073 17.3954Z" fill="white"/>
</svg>
